<?xml version="1.0" encoding="UTF-8"?>
<svg version="1.1" xmlns="http://www.w3.org/2000/svg" width="528" height="561">
<path d="M0 0 C174.24 0 348.48 0 528 0 C528 185.13 528 370.26 528 561 C353.76 561 179.52 561 0 561 C0 375.87 0 190.74 0 0 Z " fill="#63276B" transform="translate(0,0)"/>
<path d="M0 0 C1.59854605 0.0011323 3.19709418 0.00048719 4.79563904 -0.00177002 C9.07567672 -0.00290321 13.35525279 0.02037583 17.63518453 0.04852581 C22.13009158 0.07377608 26.62501282 0.07589987 31.11997986 0.08062744 C39.60517995 0.09298858 48.09017035 0.1257158 56.5752787 0.1660254 C66.24655954 0.2109586 75.91785115 0.23278397 85.58921063 0.25280714 C105.45924834 0.2944557 125.32909819 0.36467212 145.19897461 0.45410156 C145.23132252 3.44637755 145.25473223 6.43829576 145.27319336 9.43066406 C145.28314331 10.26670166 145.29309326 11.10273926 145.30334473 11.96411133 C145.40285657 33.55294344 137.38480475 54.1565493 122.22241211 69.62597656 C108.45392291 82.93401137 90.15762543 90.5727946 71.04541016 90.58007812 C70.029216 90.58288033 70.029216 90.58288033 68.99249268 90.58573914 C67.53353438 90.58971602 66.07456997 90.59181546 64.61560631 90.59220123 C61.49866287 90.59565369 58.38192124 90.61706012 55.26504993 90.6374321 C49.47777785 90.67525098 43.69073058 90.70672018 37.90332031 90.70458984 C33.86192947 90.70379843 29.82129324 90.72734032 25.78009987 90.76647186 C24.2505108 90.77686168 22.7208339 90.77850815 21.19122887 90.77082062 C12.05318257 90.72947053 5.0601362 91.49610492 -2.80102539 96.45410156 C-3.52586624 96.79902649 -4.25070709 97.14395142 -4.99751282 97.49932861 C-7.37245867 98.75661625 -7.76280819 100.01228599 -8.80102539 102.45410156 C-9.21481445 103.11925781 -9.62860352 103.78441406 -10.05493164 104.46972656 C-14.64975441 112.31521499 -14.58291306 119.57119697 -14.80102539 128.45410156 C-13.81389053 128.24093796 -12.82675568 128.02777435 -11.80970764 127.80815125 C-0.16537276 125.44148877 11.03898679 125.05794706 22.89038086 125.16113281 C24.8166419 125.16674531 26.7429073 125.17100756 28.66917419 125.17399597 C33.67829737 125.18531477 38.6871492 125.21466625 43.69616699 125.24810791 C48.83183118 125.27909246 53.96754028 125.29256125 59.10327148 125.30761719 C69.13529013 125.3395517 79.16710959 125.39058596 89.19897461 125.45410156 C89.22621937 128.12995303 89.24593062 130.80552058 89.26147461 133.48144531 C89.26985352 134.22890015 89.27823242 134.97635498 89.28686523 135.74645996 C89.36613164 154.01241303 82.46939171 170.04619017 70.19897461 183.45410156 C69.59698242 184.14761719 68.99499023 184.84113281 68.37475586 185.55566406 C62.85768728 191.54694608 56.2716125 195.50923894 49.19897461 199.45410156 C48.4603418 199.87820313 47.72170898 200.30230469 46.96069336 200.73925781 C36.25875702 206.20451851 23.2535065 206.57279762 11.47900391 206.96826172 C5.4947546 207.24776954 0.50891564 208.58566608 -4.80102539 211.45410156 C-3.16964822 215.07075254 -0.94981401 218.06978667 1.38647461 221.26660156 C16.1033487 242.09393844 20.84758128 266.08932111 16.81347656 291.16259766 C13.942192 306.43394352 6.83049495 319.44659359 -2.80102539 331.45410156 C-3.37336914 332.20820313 -3.94571289 332.96230469 -4.53540039 333.73925781 C-16.11982219 348.16243644 -34.17349774 357.07029233 -51.80102539 361.45410156 C-53.06172852 361.79054688 -53.06172852 361.79054688 -54.34790039 362.13378906 C-76.81798572 367.22793884 -99.2443718 361.88303412 -118.80102539 350.45410156 C-140.42477744 336.5442371 -153.88227866 315.25213273 -159.80102539 290.45410156 C-164.74998922 267.35893701 -159.14718386 243.79216932 -146.70336914 224.14160156 C-133.30605806 205.46803548 -116.87226936 195.01530537 -95.80834961 186.6640625 C-92.12376753 185.37162094 -92.12376753 185.37162094 -89.80102539 182.45410156 C-89.70594214 181.05014269 -89.67201758 179.64179222 -89.66972351 178.23461914 C-89.66571533 177.34915405 -89.66170715 176.46368896 -89.65757751 175.5513916 C-89.65810623 174.5769812 -89.65863495 173.6025708 -89.65917969 172.59863281 C-89.65396805 171.06148621 -89.65396805 171.06148621 -89.64865112 169.49328613 C-89.64128229 167.25941514 -89.63594294 165.02553677 -89.63236046 162.79165649 C-89.6251928 159.24117129 -89.60951827 155.69082412 -89.59101868 152.14038086 C-89.53860326 142.04185016 -89.49069606 131.94338997 -89.47509766 121.84472656 C-89.46493409 115.66954978 -89.43538668 109.49471316 -89.39377785 103.31967163 C-89.38156778 100.97889802 -89.37632804 98.6380761 -89.37857628 96.29727173 C-89.39878405 68.35675972 -84.50297906 44.73427389 -64.61352539 23.70410156 C-46.67355823 6.49176943 -24.37634481 -0.24728085 0 0 Z " fill="#F4EBDD" transform="translate(273.801025390625,103.5458984375)"/>
<path d="M0 0 C174.24 0 348.48 0 528 0 C528 185.13 528 370.26 528 561 C353.76 561 179.52 561 0 561 C0 375.87 0 190.74 0 0 Z M79 12 C78.15163448 12.28024836 77.30326897 12.56049671 76.4291954 12.84923744 C62.78392699 17.83138829 51.43630595 26.02437988 41 36 C40.31292969 36.61230469 39.62585938 37.22460938 38.91796875 37.85546875 C22.7345457 52.82593307 12.74215253 77.40828559 11.8723495 99.1977815 C11.871103 100.29827143 11.86985651 101.39876135 11.86857224 102.53259945 C11.86473109 103.81159239 11.86088995 105.09058533 11.8569324 106.40833563 C11.85771251 107.81518747 11.85859127 109.22203926 11.85955811 110.62889099 C11.85697227 112.133207 11.8539585 113.63752232 11.8505547 115.1418367 C11.84250685 119.26811091 11.84069637 123.39436771 11.83995724 127.52064884 C11.83810277 131.97418422 11.83055338 136.42771066 11.82382202 140.88124084 C11.81025306 150.61712609 11.80421598 160.3530072 11.79981136 170.08890033 C11.79704603 176.17251405 11.7928081 182.25612619 11.78830719 188.33973885 C11.77611549 205.19560744 11.76581657 222.05147477 11.7624321 238.90734768 C11.76221253 239.98572256 11.76199297 241.06409743 11.76176675 242.17515034 C11.76154847 243.25605725 11.76133019 244.33696417 11.7611053 245.45062584 C11.76066184 247.64083064 11.76021528 249.83103544 11.75976562 252.02124023 C11.7595442 253.10764976 11.75932277 254.19405929 11.75909463 255.31339032 C11.75514941 272.90404044 11.73770339 290.49464906 11.7144061 308.08528315 C11.69066006 326.16126203 11.67822874 344.23722012 11.67706418 362.31321484 C11.67614915 372.45568894 11.67044045 382.59810899 11.65224457 392.74056816 C11.63679951 401.37996994 11.63174895 410.01930096 11.63998267 418.65871393 C11.64387386 423.06170242 11.64303501 427.46454864 11.62892532 431.86751938 C11.61609372 435.90886677 11.61746408 439.94996632 11.62951604 443.99131382 C11.63145717 445.44292983 11.62846913 446.89456397 11.61967167 448.34615462 C11.45379176 477.6004016 22.24726813 503.54344301 42.3125 524.75 C54.25325422 536.16886811 69.93408935 545.06458431 86 549 C86.93385942 549.25041192 87.86771883 549.50082383 88.82987702 549.75882399 C96.92316348 551.81831195 104.43340911 552.42692009 112.76266479 552.38095093 C114.09963331 552.38441696 115.43659895 552.38918781 116.77355874 552.39513266 C120.40941745 552.40754309 124.04503698 552.40151827 127.68089604 552.39217401 C131.61693058 552.38534242 135.55292605 552.39588505 139.48895264 552.40411377 C147.18518955 552.41741049 154.88133838 552.41459133 162.57757865 552.40587585 C168.83715859 552.39908267 175.09671396 552.39818963 181.35629654 552.4014473 C182.69598378 552.40213684 182.69598378 552.40213684 184.06273542 552.40284032 C185.87749751 552.40379957 187.6922596 552.40477221 189.50702168 552.4057581 C206.50020403 552.41430035 223.49333772 552.40449668 240.48651208 552.388357 C255.04262747 552.37495949 269.59867106 552.3772795 284.15478516 552.39111328 C301.08677193 552.40719767 318.01871611 552.41347165 334.95070946 552.40427649 C336.75916361 552.40332092 338.56761777 552.4023778 340.37607193 552.4014473 C341.26569813 552.40098447 342.15532434 552.40052164 343.07190891 552.40004479 C349.31725593 552.39746312 355.56257575 552.40180817 361.80791855 552.40888596 C369.42870115 552.41733319 377.04939115 552.41495365 384.67016326 552.39904372 C388.55257451 552.39120342 392.43483184 552.38799614 396.31724167 552.39799118 C399.88152932 552.40702785 403.44552251 552.40186034 407.009784 552.38605852 C408.887956 552.38119785 410.76614896 552.39082643 412.64429843 552.40123022 C439.68157022 552.2173755 464.38231121 541.35243462 483.75 522.625 C502.99230991 502.66489948 512.33790458 477.2619299 512.26069641 449.769104 C512.26372099 448.23602353 512.267612 446.70294456 512.27228898 445.16986823 C512.28253846 440.97807861 512.28039495 436.78637482 512.27610838 432.59457827 C512.27363557 428.06546394 512.28266226 423.53636999 512.29014587 419.00726318 C512.30287996 410.14188782 512.30468813 401.27654276 512.30234561 392.41115978 C512.30056067 385.20232321 512.30231586 377.99349582 512.30657005 370.78466034 C512.30746284 369.2441043 512.30746284 369.2441043 512.30837366 367.67242591 C512.30958544 365.58579749 512.31079958 363.49916907 512.31201603 361.41254064 C512.32288682 341.85373094 512.32073139 322.29493849 512.31463119 302.73612782 C512.30946372 284.85978754 512.32071381 266.98350178 512.33972941 249.10717228 C512.35912198 230.73504133 512.36736123 212.36293615 512.36360615 193.9907949 C512.3616961 183.68299551 512.36416247 173.3752425 512.37832069 163.06745148 C512.39025363 154.29118469 512.39161803 145.51499283 512.37953053 136.73872498 C512.37365497 132.26508372 512.3725056 127.7915794 512.38453293 123.31794739 C512.39543628 119.21452203 512.3922359 115.1113472 512.37827124 111.00793335 C512.37563648 109.53154621 512.37795203 108.05513914 512.38600711 106.57877162 C512.5312265 77.95217683 501.24845765 53.68512747 481.53125 33.46875 C462.18289881 15.12550796 437.1794482 7.66684201 411.06097412 7.73257446 C409.70480831 7.72882786 408.34864465 7.72422236 406.99248433 7.71884382 C403.30353322 7.70672335 399.61467353 7.70686118 395.9257071 7.70923257 C391.93237585 7.70964353 387.93907283 7.69857524 383.945755 7.68911743 C376.1365743 7.67256742 368.3274238 7.66701064 360.51822701 7.66589268 C354.16570382 7.66493947 347.81319053 7.66081564 341.46067047 7.65449142 C323.4175408 7.63689642 305.37443484 7.62764998 287.33129653 7.62915237 C285.87493903 7.62927224 285.87493903 7.62927224 284.38916016 7.62939453 C283.41705869 7.62947629 282.44495723 7.62955805 281.44339815 7.62964229 C265.69350988 7.63045499 249.94371729 7.61131676 234.19385669 7.5831178 C217.99010843 7.55433693 201.78640675 7.54058032 185.5826323 7.54230535 C176.49822077 7.54296739 167.41390958 7.53755675 158.32952118 7.51594925 C150.59496646 7.49766895 142.8605576 7.49344612 135.12599054 7.5069681 C131.18657365 7.51346301 127.24743603 7.51374219 123.30804634 7.4962616 C100.85068684 7.30016101 100.85068684 7.30016101 79 12 Z " fill="#E9E2F0" transform="translate(0,0)"/>
<path d="M0 0 C1.48786223 0.00373824 2.97572694 0.00658137 4.46359253 0.00857544 C8.34662888 0.01614816 12.22951147 0.03574057 16.11248779 0.0579834 C20.08799155 0.07858028 24.06352057 0.08760652 28.0390625 0.09765625 C35.81517365 0.11899364 43.59115889 0.15305095 51.3671875 0.1953125 C51.05542807 1.63992801 50.74113987 3.08399795 50.42578125 4.52783203 C50.16365845 5.73416794 50.16365845 5.73416794 49.89624023 6.96487427 C47.26074389 18.07588728 38.85805896 27.72519806 29.3046875 33.6328125 C27.67525846 34.51787129 26.02940414 35.3734829 24.3671875 36.1953125 C23.56925781 36.59492188 22.77132812 36.99453125 21.94921875 37.40625 C15.44078109 40.48058739 9.48455566 41.25879636 2.33789062 41.48510742 C-16.47023815 42.10249239 -31.10597944 46.49848333 -44.6328125 60.1953125 C-45.19613281 60.73671875 -45.75945312 61.278125 -46.33984375 61.8359375 C-55.06397251 70.95138602 -58.69759743 83.06796475 -60.6328125 95.1953125 C-61.4784375 95.29328125 -62.3240625 95.39125 -63.1953125 95.4921875 C-70.23690752 96.42039775 -75.42669203 97.81015588 -81.6328125 101.1953125 C-85.6328125 101.1953125 -85.6328125 101.1953125 -87.2734375 99.5859375 C-88.07007813 98.52632812 -88.07007813 98.52632812 -88.8828125 97.4453125 C-93.72657204 91.55988425 -99.5074873 88.86126758 -107.0078125 87.88671875 C-115.04003585 87.49227921 -121.01689759 89.6492891 -127.6328125 94.1953125 C-132.31455444 98.67430183 -134.84659042 104.04408414 -136.6328125 110.1953125 C-136.94025391 111.13890625 -136.94025391 111.13890625 -137.25390625 112.1015625 C-141.06119002 125.7552698 -139.29841839 141.36702079 -132.9453125 153.8828125 C-127.30782404 163.48588721 -120.44383368 169.94281018 -110.6328125 175.1953125 C-109.43978516 175.84886719 -109.43978516 175.84886719 -108.22265625 176.515625 C-96.94947686 181.62518016 -82.13883538 180.70364762 -70.5078125 177.1953125 C-57.81708553 172.22997889 -49.0215484 164.24639626 -43.06640625 151.96484375 C-37.38859857 138.68427365 -36.35001572 123.70490184 -40.94921875 109.86328125 C-43.3946999 100.31891766 -42.18530482 90.83285373 -37.6328125 82.1953125 C-33.38132696 83.69923936 -31.5005534 86.78776904 -29.1953125 90.4453125 C-28.80279297 91.06212891 -28.41027344 91.67894531 -28.00585938 92.31445312 C-18.81161848 107.31398331 -16.29893558 125.29715767 -19.3203125 142.5703125 C-24.2568125 162.28203127 -35.45221617 178.30859799 -52.6328125 189.1953125 C-68.68495384 198.4367252 -87.95392783 201.14793201 -106.1328125 197.1328125 C-116.64060098 193.90314591 -126.44775721 188.51878302 -134.6328125 181.1953125 C-135.75429687 180.21304688 -135.75429687 180.21304688 -136.8984375 179.2109375 C-148.43845398 168.45595615 -156.76038588 152.66901634 -157.79394531 136.70678711 C-158.18310134 112.52707486 -153.65492136 94.9174808 -136.62109375 77.08984375 C-126.15122252 67.08444 -113.21548034 61.16364241 -99.0625 58.53125 C-94.46762926 56.74144841 -93.12243901 54.32854687 -90.6953125 50.1953125 C-89.83674658 48.82597897 -88.97474653 47.4587928 -88.109375 46.09375 C-87.69075195 45.42569336 -87.27212891 44.75763672 -86.84082031 44.06933594 C-72.94142184 22.50672828 -50.46135214 7.83055408 -25.6328125 2.1953125 C-24.98026489 2.02777466 -24.32771729 1.86023682 -23.65539551 1.68762207 C-15.80315354 -0.14952382 -8.01086682 -0.05968316 0 0 Z " fill="#64296A" transform="translate(290.6328125,248.8046875)"/>
<path d="M0 0 C1.41002901 0.00056494 2.82005861 0.00024594 4.23008728 -0.00088501 C8.0373956 -0.00145629 11.8445766 0.01026144 15.65185547 0.02426291 C19.6383397 0.03680789 23.6248272 0.03794373 27.61132812 0.04031372 C35.15114913 0.04651745 42.69091179 0.06291322 50.23070717 0.0830127 C58.81838734 0.10540624 67.40607038 0.11637381 75.99377251 0.12640357 C93.65082927 0.14728047 111.30783181 0.18243483 128.96484375 0.22705078 C129.13932961 14.16436564 122.57164323 26.06555172 113.22265625 36.12548828 C103.31122227 45.35100988 90.61808996 50.31169769 77.16186523 50.38476562 C76.49766068 50.38984634 75.83345612 50.39492706 75.14912415 50.40016174 C73.71251662 50.41082393 72.27589291 50.41946022 70.83926201 50.42628098 C68.55454486 50.43815138 66.27000992 50.45762773 63.98536682 50.47940063 C57.49120283 50.54071973 50.99705707 50.59484569 44.50268555 50.62841797 C40.52208814 50.64954224 36.54182371 50.684988 32.56141853 50.72917557 C31.05581687 50.74320036 29.5501563 50.75202693 28.04449272 50.75522995 C11.75467861 50.79352999 -2.72343348 53.45348804 -14.93359375 64.93017578 C-22.44594884 73.14070514 -29.42998152 85.13772809 -28.93115234 96.62133789 C-28.87266113 97.50829346 -28.81416992 98.39524902 -28.75390625 99.30908203 C-28.02040495 113.89929695 -28.02040495 113.89929695 -31.55322266 117.98095703 C-35.60360778 120.89200936 -40.19535563 122.54220036 -44.83642578 124.28515625 C-49.27098687 126.18483832 -52.76739806 129.29075211 -56.51953125 132.28173828 C-58.93663163 134.15086249 -61.40520215 135.67966428 -64.03515625 137.22705078 C-64.12824129 126.23863596 -64.19911546 115.25031647 -64.24240494 104.26158619 C-64.26319209 99.15789069 -64.29134583 94.05446691 -64.33691406 88.95092773 C-64.38069054 84.01662754 -64.4043599 79.08258708 -64.41466522 74.14810753 C-64.42199994 72.27482712 -64.43632131 70.40155933 -64.45807648 68.52839088 C-64.5791252 57.66399376 -64.17256034 48.42832101 -60.03515625 38.22705078 C-59.76534943 37.55896896 -59.4955426 36.89088715 -59.21755981 36.20256042 C-52.43570568 20.86715634 -40.45827577 10.64554305 -25.609375 3.60205078 C-16.8978374 0.25072703 -9.27839779 -0.05099139 0 0 Z " fill="#63286B" transform="translate(269.03515625,123.77294921875)"/>
<path d="M0 0 C5.00230198 2.45567552 8.49851535 5.9970307 11 11 C11.70394947 17.80484488 10.28711948 21.68397184 6 27 C1.81792468 30.81306868 -2.23428805 31.35247678 -7.71875 31.28125 C-12.49979486 30.69180611 -15.24961178 27.85179203 -18.3125 24.375 C-21.45092562 19.95795653 -21.63879705 16.32630779 -21 11 C-16.26180364 1.52360728 -10.29108656 -1.65638949 0 0 Z " fill="#652B6B" transform="translate(203,387)"/>
<path d="M0 0 C3.88446678 2.58964452 6.69907021 5.64814041 8.8125 9.875 C9.35192846 16.13237013 8.62995156 20.75485725 4.8125 25.875 C1.24692956 29.24195776 -2.42302121 30.14272433 -7.25 30.375 C-13.34718857 30.09743451 -16.46874389 27.72944738 -20.5625 23.3125 C-22.8717072 18.42763861 -23.07377766 14.18495922 -22.1875 8.875 C-20.43743343 4.75675824 -18.02679338 2.45317988 -14.375 -0.0625 C-9.1950995 -1.7891335 -5.15566054 -1.8196449 0 0 Z " fill="#632A69" transform="translate(188.1875,349.125)"/>
<path d="M0 0 C4.31402932 1.68809843 7.92932352 4.79924238 10 9 C10.89732296 14.12866486 10.78252397 19.18821246 8.5 23.9375 C4.66305482 28.63775785 0.67903704 30.53632051 -5.25 31.5625 C-9.03303258 30.78869788 -9.6759406 29.05447807 -12 26 C-13.56949591 25.08013892 -15.15436797 24.18623922 -16.75 23.3125 C-20.77471102 20.74649808 -20.77471102 20.74649808 -21.72265625 17.60546875 C-21.91513647 12.02354251 -20.8166188 8.21836814 -17 4 C-11.84857192 -0.77449432 -6.68507327 -0.82923573 0 0 Z " fill="#642A6A" transform="translate(230,357)"/>
<path d="M0 0 C0.99 0.33 1.98 0.66 3 1 C2.06027344 1.92232422 2.06027344 1.92232422 1.1015625 2.86328125 C0.28429687 3.67152344 -0.53296875 4.47976562 -1.375 5.3125 C-2.18710937 6.11300781 -2.99921875 6.91351563 -3.8359375 7.73828125 C-6.12604842 10.00009937 -6.12604842 10.00009937 -8 13 C-8 8.20425152 -6.86880696 6.74538687 -4 3 C-1.9375 1.0625 -1.9375 1.0625 0 0 Z " fill="#613164" transform="translate(271,199)"/>
<path d="M0 0 C0.66 0.33 1.32 0.66 2 1 C-0.97 4.63 -3.94 8.26 -7 12 C-7.33 11.01 -7.66 10.02 -8 9 C-5.84140076 5.16249025 -3.71404629 2.38760119 0 0 Z " fill="#F7EBEB" transform="translate(221,141)"/>
<path d="M0 0 C1.31622874 3.94868623 0.30180315 5.35071376 -1.3125 9.125 C-1.76238281 10.20007813 -2.21226562 11.27515625 -2.67578125 12.3828125 C-4 15 -4 15 -6 16 C-4.56176509 10.36691325 -2.45855991 5.26322777 0 0 Z " fill="#F8EDEE" transform="translate(414,139)"/>
<path d="M0 0 C0.66 0.33 1.32 0.66 2 1 C0.38405168 3.04119788 -1.2856382 5.04072937 -3 7 C-3.66 7 -4.32 7 -5 7 C-5.66 8.32 -6.32 9.64 -7 11 C-7.66 10.67 -8.32 10.34 -9 10 C-6.03 6.7 -3.06 3.4 0 0 Z " fill="#6F436D" transform="translate(226,138)"/>
<path d="M0 0 C0.66 0 1.32 0 2 0 C1.69381595 3.67420866 1.24228216 4.78135513 -1.5625 7.3125 C-2.366875 7.869375 -3.17125 8.42625 -4 9 C-2.94124926 5.59687262 -1.99097846 2.98646769 0 0 Z " fill="#613160" transform="translate(204,292)"/>
<path d="M0 0 C0.99 0.33 1.98 0.66 3 1 C-1.455 3.97 -1.455 3.97 -6 7 C-6 6.01 -6 5.02 -6 4 C-3.1875 1.75 -3.1875 1.75 0 0 Z " fill="#5D2E5D" transform="translate(235,132)"/>
</svg>
